<svg xmlns:dc="http://purl.org/dc/elements/1.1/" xmlns:cc="http://creativecommons.org/ns#" xmlns:rdf="http://www.w3.org/1999/02/22-rdf-syntax-ns#" xmlns:svg="http://www.w3.org/2000/svg" xmlns="http://www.w3.org/2000/svg" xmlns:sodipodi="http://sodipodi.sourceforge.net/DTD/sodipodi-0.dtd" xmlns:inkscape="http://www.inkscape.org/namespaces/inkscape" width="12.302631mm" height="12.302631mm" viewBox="0 0 43.592001 43.592001" id="svg6074" version="1.1" inkscape:version="0.91 r13725" sodipodi:docname="WikiMooc_2017 - Letter D.svg">
  <defs id="defs6076">
    <clipPath id="clipPath6096" clipPathUnits="userSpaceOnUse">
      <path style="clip-rule:evenodd" inkscape:connector-curvature="0" id="path6098" d="m -9,-9 53,0 0,53 -53,0 0,-53 z"/>
    </clipPath>
  </defs>
  <sodipodi:namedview id="base" pagecolor="#ffffff" bordercolor="#666666" borderopacity="1.0" inkscape:pageopacity="0.0" inkscape:pageshadow="2" inkscape:zoom="13.098734" inkscape:cx="21.796037" inkscape:cy="21.796002" inkscape:document-units="px" inkscape:current-layer="layer1" showgrid="false" showborder="false" fit-margin-top="0" fit-margin-left="0" fit-margin-right="0" fit-margin-bottom="0" inkscape:window-width="1024" inkscape:window-height="745" inkscape:window-x="-4" inkscape:window-y="-4" inkscape:window-maximized="1"/>
  <metadata id="metadata6079">
    <rdf:RDF>
      <cc:Work rdf:about="">
        <dc:format>image/svg+xml</dc:format>
        <dc:type rdf:resource="http://purl.org/dc/dcmitype/StillImage"/>
        <dc:title/>
        <cc:license rdf:resource="http://creativecommons.org/licenses/by-nc-sa/3.0/"/>
      </cc:Work>
      <cc:License rdf:about="http://creativecommons.org/licenses/by-nc-sa/3.0/">
        <cc:permits rdf:resource="http://creativecommons.org/ns#Reproduction"/>
        <cc:permits rdf:resource="http://creativecommons.org/ns#Distribution"/>
        <cc:requires rdf:resource="http://creativecommons.org/ns#Notice"/>
        <cc:requires rdf:resource="http://creativecommons.org/ns#Attribution"/>
        <cc:prohibits rdf:resource="http://creativecommons.org/ns#CommercialUse"/>
        <cc:permits rdf:resource="http://creativecommons.org/ns#DerivativeWorks"/>
        <cc:requires rdf:resource="http://creativecommons.org/ns#ShareAlike"/>
      </cc:License>
    </rdf:RDF>
  </metadata>
  <g inkscape:label="Calque 1" inkscape:groupmode="layer" id="layer1" transform="translate(-1155.3468,-967.70906)">
    <g transform="matrix(1.25,0,0,-1.25,1155.3469,1011.301)" inkscape:label="WikiMooc_2017 - Letter D" id="g6090">
      <g id="g6092">
        <g clip-path="url(#clipPath6096)" id="g6094">
          <path inkscape:connector-curvature="0" id="path6100" 
          style="fill:white;fill-opacity:1;fill-rule:evenodd;stroke:#c9c9c9;stroke-width:0.7087;stroke-linecap:butt;stroke-linejoin:miter;stroke-miterlimit:22.92558479;stroke-dasharray:none;stroke-opacity:1" d="m 0.3543,17.4368 c 0,4.7276 1.6626,8.7539 4.9955,12.0869 3.333,3.333 7.3593,4.9955 12.087,4.9955 4.7276,0 8.7539,-1.6625 12.0869,-4.9955 3.333,-3.333 4.9955,-7.3593 4.9955,-12.0869 0,-4.7277 -1.6625,-8.754 -4.9955,-12.087 -3.333,-3.3329 -7.3593,-4.9955 -12.0869,-4.9955 -4.7277,0 -8.754,1.6626 -12.087,4.9955 -3.3329,3.333 -4.9955,7.3593 -4.9955,12.087 z m 3.4197,0 c 0,-3.7664 1.3315,-6.9891 4.0026,-9.6602 2.6711,-2.6711 5.8938,-4.0026 9.6602,-4.0026 3.7663,0 6.9891,1.3315 9.6601,4.0026 2.6711,2.6711 4.0026,5.8938 4.0026,9.6602 0,3.7663 -1.3315,6.9891 -4.0026,9.6601 -2.671,2.6711 -5.8938,4.0026 -9.6601,4.0026 -3.7664,0 -6.9891,-1.3315 -9.6602,-4.0026 C 5.1055,24.4259 3.774,21.2031 3.774,17.4368 Z"/>
          <path inkscape:connector-curvature="0" id="path6102" style="fill:#e51b4c;fill-opacity:1;fill-rule:evenodd;stroke:#c9c9c9;stroke-width:0.7087;stroke-linecap:butt;stroke-linejoin:miter;stroke-miterlimit:22.92558479;stroke-dasharray:none;stroke-opacity:1" d="m 17.4368,30.7023 c 7.3264,0 13.2655,-5.9391 13.2655,-13.2655 0,-7.3265 -5.9391,-13.2656 -13.2655,-13.2656 -7.3265,0 -13.2656,5.9391 -13.2656,13.2656 0,7.3264 5.9391,13.2655 13.2656,13.2655 z"/>
          <path inkscape:connector-curvature="0" id="path6104" style="fill:#ffffff;fill-opacity:1;fill-rule:nonzero;stroke:none" d="m 12.6578,11.4009 0,11.685 c -0.6318,0.0099 -1.0992,0.1542 -1.3977,0.4329 -0.3036,0.2735 -0.4527,0.6318 -0.4527,1.0695 0,0.4476 0.1542,0.8107 0.4575,1.0842 0.3084,0.2787 0.8209,0.4181 1.5372,0.4181 l 6.253,-0.015 c 0.97,0 1.9199,-0.1791 2.8502,-0.5422 0.9252,-0.3581 1.6716,-0.8159 2.2385,-1.368 0.4278,-0.4179 0.8705,-0.9899 1.3331,-1.7212 0.4578,-0.7263 0.8059,-1.4525 1.0398,-2.1688 0.2339,-0.7214 0.3481,-1.6019 0.3481,-2.6365 l 0,-1.4327 c 0,-1.2634 -0.2089,-2.3828 -0.6367,-3.3576 C 25.8004,11.8735 25.2383,11.0775 24.5418,10.4607 23.8504,9.8439 23.1936,9.3864 22.5819,9.0978 21.6119,8.64 20.3533,8.4112 18.8062,8.4112 l -6.0041,0 c -0.7163,0 -1.2288,0.1392 -1.5372,0.4179 -0.3033,0.2735 -0.4575,0.6366 -0.4575,1.0845 0,0.4377 0.1542,0.796 0.4575,1.0794 0.3084,0.2787 0.771,0.4179 1.3929,0.4079 z m 2.9897,0 3.1737,0 c 1.1888,0 2.0792,0.1693 2.6813,0.5074 0.7909,0.4476 1.3827,1.0148 1.7807,1.7062 0.398,0.6914 0.597,1.582 0.597,2.6813 l 0,1.4128 c 0,0.9451 -0.1792,1.7708 -0.5372,2.4772 -0.5672,1.1092 -1.199,1.8703 -1.9051,2.2833 -0.7016,0.413 -1.5872,0.6168 -2.6465,0.6168 l -3.1439,0 0,-11.685 z"/>
        </g>
      </g>
    </g>
  </g>
</svg>